# xmcd
#
# Track frame offsets:
# 150
# 32237
# 57950
# 77025
#
# Disc length: 1257 seconds
#
#
# Revision: 2
# Processed by: cddbd v1.5.1PL0 Copyright (c) Steve Scherf et al.
# Submitted via: FreeRIP 2.80 
#
DISCID=2b04e704
DTITLE=Millie Jackson - Love Is A Dangerous Game
DYEAR=1986
DGENRE=R&B
TTITLE0=Love Is A Dangerous Game (Extended Mix)
TTITLE1=Hot! Wild! Unrestricted! Crazy Love (Extended Version)
TTITLE2=An Imitation Of Love (Album Version)
TTITLE3=Love Is A Dangerous Game (7" Version)
EXTD=Special 4 Track CD Single \nAll songs taken from Mille Jackons' album "An Imitation of Love"\nJive C 135
EXTT0=
EXTT1=
EXTT2=
EXTT3=
PLAYORDER=
